PathFileType	4	(X/Y/Z)	 s08c0201.trc
DataRate	CameraRate	NumFrames	NumMarkers	Units	OrigDataRate	OrigDataStartFrame	OrigNumFrames
200	200	4	50	mm	200	251	2000
Frame#	Time	racr			lacr			c7			jug			rlel			rdr			llel			ldr			s2			lic			ric			lasi			rasi			rpsi			lpsi			rgt			lgt			rth1			rth2			rth3			rth4			rlfc			rmfc			rsh1			rsh2			rsh3			rsh4			rlmal			rmmal			rcal			rtoe			rmt5			lth1			lth2			lth4			lth3			llfc			lmfc			llmal			lmmal			lcal			lmt5			lsh1			lsh2			lsh3			lsh4			ltoe			SBIKE			LBIKE			RBIKE			
		X1	Y1	Z1	X2	Y2	Z2	X3	Y3	Z3	X4	Y4	Z4	X5	Y5	Z5	X6	Y6	Z6	X7	Y7	Z7	X8	Y8	Z8	X9	Y9	Z9	X10	Y10	Z10	X11	Y11	Z11	X12	Y12	Z12	X13	Y13	Z13	X14	Y14	Z14	X15	Y15	Z15	X16	Y16	Z16	X17	Y17	Z17	X18	Y18	Z18	X19	Y19	Z19	X20	Y20	Z20	X21	Y21	Z21	X22	Y22	Z22	X23	Y23	Z23	X24	Y24	Z24	X25	Y25	Z25	X26	Y26	Z26	X27	Y27	Z27	X28	Y28	Z28	X29	Y29	Z29	X30	Y30	Z30	X31	Y31	Z31	X32	Y32	Z32	X33	Y33	Z33	X34	Y34	Z34	X35	Y35	Z35	X36	Y36	Z36	X37	Y37	Z37	X38	Y38	Z38	X39	Y39	Z39	X40	Y40	Z40	X41	Y41	Z41	X42	Y42	Z42	X43	Y43	Z43	X44	Y44	Z44	X45	Y45	Z45	X46	Y46	Z46	X47	Y47	Z47	X48	Y48	Z48	X49	Y49	Z49	X50	Y50	Z50	
251	1.2550	591.197640	1367.485303	-66.651493	588.671454	1377.003781	-382.244921	563.876025	1420.122830	-219.277927	539.534524	1259.024430	-216.990314	555.372407	1108.386072	58.258812	781.403202	943.069006	-36.783086	584.723937	1120.806508	-504.821901	781.924674	936.130852	-409.250236	0.512123	1221.627273	-219.981859	161.803651	1194.606391	-367.297239	169.707951	1197.809631	-59.833160	178.829419	1145.601349	-333.616048	187.906950	1145.618652	-98.810843	40.202323	1255.143657	-167.513804	36.671417	1262.526839	-262.262545	81.884575	1103.478979	-30.361635	97.571417	1103.441334	-410.805384	195.264896	974.398583	-25.920688	269.345290	925.520914	-29.323972	308.032387	847.822900	-41.065987	296.342251	949.892617	-38.284882	386.675332	753.685887	-56.631060	366.135485	736.126972	-164.553084	348.655365	625.535170	-22.556121	368.781003	539.145729	-37.627741	342.585497	456.704315	-43.588021	396.599825	541.851762	-67.694479	328.560043	336.255119	-49.250215	341.492415	360.153200	-138.097220	253.267911	302.204434	-95.562638	550.350615	306.516922	-96.668238	464.364857	269.277662	-30.310002	184.169025	1002.273568	-418.993999	260.641012	959.708932	-419.568698	285.504345	984.186277	-406.792765	305.577735	882.892002	-422.183314	367.666236	766.411858	-396.849771	368.884078	742.974576	-333.284004	61.978202	489.590657	-391.527612	91.313273	495.070847	-306.492227	-14.699664	496.039974	-352.279815	150.928522	360.904109	-413.943881	283.353435	673.171115	-418.187149	232.315163	607.445857	-396.944064	153.899752	568.214605	-400.382706	246.980991	595.003066	-360.794271	236.681392	353.573081	-343.935477	-133.755935	944.355008	-221.862142	26.819084	84.271984	-426.450568	18.474698	80.210341	-28.194474	
252	1.2600	592.792433	1367.807074	-67.662346	589.426445	1376.120775	-383.337305	564.808439	1420.485069	-220.267063	540.775837	1259.033058	-217.518825	555.971456	1109.147276	58.168753	781.255668	943.359031	-37.053315	583.769122	1119.573090	-505.220913	782.126622	936.425450	-409.579752	1.412948	1221.956637	-218.987097	175.549840	1201.158053	-380.977655	170.950842	1197.689251	-59.099100	179.414426	1147.059192	-332.817713	189.115487	1145.444079	-98.157804	41.445637	1255.338335	-166.477037	37.429178	1263.161077	-261.001311	82.717433	1102.634333	-30.218384	98.955039	1105.394579	-410.677214	194.542494	971.928709	-25.667936	267.666377	921.630218	-28.994013	304.959220	843.351840	-41.021146	295.159790	945.523733	-38.092452	382.142131	748.255206	-56.538659	361.125841	730.618480	-164.306820	344.871538	620.065470	-22.321676	365.746466	533.692930	-37.329106	340.110322	451.098781	-43.283586	393.448172	536.725259	-67.492762	326.956790	330.381723	-48.813916	340.062857	354.093393	-137.798489	251.651009	296.871858	-95.239114	548.733493	299.404329	-96.779100	462.659720	262.602789	-30.358789	186.397342	1005.428305	-418.556153	263.404505	963.938086	-419.315241	287.920432	988.769428	-406.641398	309.354614	887.774729	-422.252761	372.481275	771.910327	-397.224410	375.193738	747.800895	-338.710798	65.449747	496.771996	-391.551196	96.002052	502.144816	-306.726255	-10.998753	503.855441	-352.141450	153.241865	367.094083	-413.849359	287.980273	679.121635	-418.336399	236.477803	613.596449	-397.165141	157.385129	574.286181	-399.500212	251.157308	600.985787	-361.173007	238.957243	358.801562	-343.784116	-134.052265	944.496148	-222.172109	26.807971	84.304349	-426.436705	18.458084	80.204733	-28.193725	
253	1.2650	594.351747	1368.220761	-68.877792	590.279170	1375.219873	-384.538836	565.652209	1420.932106	-221.401791	541.735332	1259.460528	-218.251929	556.637699	1109.959887	57.914892	781.298915	943.540675	-37.069629	582.819636	1118.192197	-505.621609	782.377521	936.778967	-409.888880	2.261291	1222.340382	-217.978871	178.094006	1203.284092	-382.746160	172.222531	1197.773705	-58.413451	180.028294	1148.665291	-332.065820	190.209872	1145.291011	-97.489215	42.669558	1255.631505	-165.426469	38.334480	1263.766309	-259.938940	83.445540	1101.973370	-30.122707	100.285908	1107.483956	-410.667414	193.689211	969.463795	-25.331588	265.862064	917.742353	-28.663704	301.723296	838.878366	-41.032994	293.782819	941.297153	-37.875292	377.341133	742.893932	-56.402799	356.031771	725.293200	-163.919284	341.000829	614.614823	-21.969670	362.347025	528.351691	-37.308453	337.352561	445.707560	-43.040399	390.160204	531.637260	-67.489883	325.029483	324.734180	-48.589698	337.957448	348.684069	-137.663301	249.841917	291.840954	-95.161158	546.964984	292.321929	-96.860136	460.640064	256.021679	-30.403967	188.546286	1008.842821	-418.179873	266.078313	968.428364	-419.037516	290.317528	993.483717	-406.387992	313.146400	892.855780	-422.142584	377.189193	777.600698	-397.537536	380.961915	752.896715	-341.553688	69.079845	503.776932	-391.586873	98.945366	508.710150	-307.384240	-7.148184	511.614274	-352.158591	155.778883	373.179681	-413.783530	292.426899	685.085900	-418.588027	240.729267	619.922947	-397.623417	161.289876	580.976875	-399.624690	255.389592	606.982933	-361.436332	241.363252	364.083519	-343.713507	-133.968284	944.527009	-222.088317	26.792978	84.434831	-426.531592	18.463250	80.220681	-28.165990	
254	1.2700	595.883557	1368.846100	-70.128640	591.038761	1374.211406	-385.706569	566.518095	1421.346676	-222.339902	543.804196	1259.520510	-220.051154	557.567068	1110.768860	57.982492	781.340930	943.680852	-37.056372	581.808470	1116.859403	-506.082970	782.652095	937.096268	-410.080663	3.151661	1222.801912	-217.078579	176.124215	1203.694751	-379.775267	173.553640	1197.847043	-57.833540	180.555005	1150.311669	-331.253882	191.754512	1145.183811	-96.775465	43.931032	1256.121064	-164.560215	39.198975	1264.498164	-258.907624	84.068539	1101.284518	-30.083898	101.532088	1109.605129	-410.620696	192.642140	967.162335	-25.214089	263.952859	914.201046	-28.459657	298.141312	834.725344	-41.058798	292.253597	937.218486	-37.611928	372.486828	737.731368	-56.221493	350.877801	720.197539	-163.627398	337.243533	609.265732	-21.796096	358.794655	523.448874	-37.221997	334.434436	440.429943	-42.939118	386.642620	526.684923	-67.392099	322.851852	319.341353	-48.520860	335.792103	343.271971	-137.547181	247.834238	286.995941	-95.250290	544.981044	285.091312	-96.871266	458.336503	249.525954	-30.470909	190.664726	1012.406953	-417.796252	268.675898	972.968358	-418.773489	292.573328	998.384179	-406.120343	316.717103	898.132085	-422.124826	391.830131	789.920520	-409.360971	386.031061	758.320667	-341.059391	73.239020	511.045798	-392.080128	102.163970	515.495541	-307.464950	-3.114890	519.084691	-352.222621	158.472623	379.227516	-413.764878	297.033919	691.092527	-418.584214	245.029788	625.963302	-397.758058	165.308673	587.533164	-399.868764	259.591636	612.947493	-361.609303	244.083402	369.259451	-343.566587	-133.875643	944.489797	-221.988931	26.824077	84.311526	-426.432075	18.450474	80.197196	-28.200084	
